<?xml version="1.0" encoding="utf-8"?>
<!-- Generator: Adobe Illustrator 22.0.1, SVG Export Plug-In . SVG Version: 6.00 Build 0)  -->
<svg version="1.1" id="Layer_1" xmlns="http://www.w3.org/2000/svg" xmlns:xlink="http://www.w3.org/1999/xlink" x="0px" y="0px"
	 viewBox="0 0 171.8 69.5" style="enable-background:new 0 0 171.8 69.5;" xml:space="preserve">
<style type="text/css">
	.st0{fill:#231F20;}
	.st1{fill:#D1232A;}
</style>
<path class="st0" d="M166.7,46.9c0,1.9-0.1,2.8-0.5,3.3c-0.4,0.5-1,0.8-1.8,0.8h-1.8v-8.1h1.8c0.8,0,1.4,0.3,1.8,0.8
	C166.6,44.2,166.7,45,166.7,46.9 M169.1,46.9c0-1.9,0.1-3.6-1.3-5c-0.8-0.8-2-1.2-3.3-1.2H160v12.5h4.5c1.3,0,2.5-0.4,3.3-1.2
	C169.2,50.6,169.1,48.8,169.1,46.9 M157.3,40.7h-2.4v12.5h2.4V40.7z M149.6,48.9h-3.1l1.6-4.5L149.6,48.9z M153.5,53.2L149,40.7H147
	l-4.5,12.5h2.5l0.8-2.2h4.4l0.7,2.2H153.5z M138.7,42.9v-2.2h-9v2.2h3.3v10.3h2.4V42.9H138.7z M128.9,49.5c0-1.1-0.3-2-1-2.6
	c-0.5-0.5-1.2-0.8-2.4-1l-1.5-0.2c-0.5-0.1-0.9-0.3-1.2-0.5c-0.3-0.2-0.4-0.6-0.4-0.9c0-0.9,0.6-1.6,1.9-1.6c0.8,0,1.8,0.1,2.6,0.9
	l1.5-1.5c-1.1-1-2.3-1.5-4-1.5c-2.7,0-4.3,1.6-4.3,3.8c0,1.1,0.3,1.9,0.9,2.5c0.6,0.5,1.4,0.9,2.4,1l1.5,0.2
	c0.6,0.1,0.9,0.2,1.1,0.4c0.3,0.2,0.4,0.6,0.4,1.1c0,1-0.8,1.5-2.2,1.5c-1.2,0-2.2-0.3-3-1.1l-1.6,1.6c1.2,1.2,2.7,1.6,4.6,1.6
	C126.9,53.3,128.9,51.9,128.9,49.5 M116.1,44.5c0,1-0.7,1.6-1.8,1.6H112v-3.3h2.3C115.4,42.9,116.1,43.6,116.1,44.5 M119,53.2
	l-2.8-5.4c1.2-0.4,2.3-1.5,2.3-3.3c0-2.1-1.5-3.8-4-3.8h-4.9v12.5h2.4v-5h1.8l2.4,5H119z M106.8,40.7h-2.4v12.5h2.4V40.7z
	 M102.4,42.9v-2.2h-8.2v12.5h2.4v-5.1h4.9v-2.2h-4.9v-3.1H102.4z M84.5,50.5c-0.6,0.5-1.1,0.7-1.9,0.7c-1.1,0-1.9-0.7-1.9-1.8
	c0-0.9,0.5-1.4,1.3-1.9L84.5,50.5z M83.9,43.6c0,0.4-0.3,0.8-0.7,1.1c0,0-0.4,0.2-0.5,0.3c-0.4-0.5-0.8-0.9-0.8-1.4c0-0.6,0.4-1,1-1
	C83.5,42.5,83.9,43,83.9,43.6 M89.7,53.2l-2.2-2.6c0.9-1,1.2-2.3,1.3-3.9h-2.2c0,0.9-0.2,1.6-0.6,2.2l-2.1-2.5
	c0.3-0.2,0.9-0.6,0.9-0.6c0.8-0.6,1.3-1.2,1.3-2.2c0-1.7-1.2-2.9-3.2-2.9c-2.1,0-3.3,1.2-3.3,2.9c0,1.2,0.7,2.1,1.2,2.6
	c-1.1,0.7-2.2,1.8-2.2,3.3c0,2.3,1.4,3.8,4.1,3.8c1.8,0,2.6-0.7,3.2-1.2l0.9,1.1H89.7z"/>
<path class="st0" d="M155.5,37.6v-2.2h-5.7V25.1h-2.4v12.5H155.5z M142.1,33.3H139l1.6-4.5L142.1,33.3z M146.1,37.6l-4.6-12.5h-1.9
	l-4.5,12.5h2.5l0.8-2.2h4.4l0.7,2.2H146.1z M136,25.1h-2.5l-2.5,8.1l-2.5-8.1h-2.5l4.1,12.5h1.8L136,25.1z M124.6,25.1h-2.4v12.5
	h2.4V25.1z M120.8,25.1h-2.5l-2.5,8.1l-2.5-8.1h-2.5l4.1,12.5h1.8L120.8,25.1z M107.5,28.9c0,1-0.7,1.6-1.8,1.6h-2.3v-3.3h2.3
	C106.8,27.2,107.5,27.9,107.5,28.9 M110.4,37.6l-2.8-5.4c1.2-0.4,2.3-1.5,2.3-3.3c0-2.1-1.5-3.8-4-3.8H101v12.5h2.4v-5h1.8l2.4,5
	H110.4z M98.5,33.3v-8.2H96v8.1c0,1.4-0.9,2.3-2.2,2.3c-1.3,0-2.2-0.9-2.2-2.3v-8.1h-2.4v8.2c0,2.6,2,4.4,4.6,4.4
	C96.4,37.7,98.5,35.9,98.5,33.3 M87.7,33.9c0-1.1-0.3-2-1-2.6c-0.5-0.5-1.2-0.8-2.4-1L82.9,30c-0.5-0.1-0.9-0.3-1.2-0.5
	c-0.3-0.2-0.4-0.6-0.4-0.9c0-0.9,0.6-1.6,1.9-1.6c0.8,0,1.8,0.1,2.6,0.9l1.5-1.5c-1.1-1-2.3-1.5-4-1.5c-2.7,0-4.3,1.6-4.3,3.8
	c0,1.1,0.3,1.9,0.9,2.5c0.6,0.5,1.4,0.9,2.4,1l1.5,0.2c0.6,0.1,0.9,0.2,1.1,0.4c0.3,0.2,0.4,0.6,0.4,1.1c0,1-0.8,1.5-2.2,1.5
	c-1.2,0-2.2-0.3-3-1.1L78.5,36c1.2,1.2,2.7,1.6,4.6,1.6C85.7,37.7,87.7,36.3,87.7,33.9"/>
<path class="st1" d="M34.5,2.2C18.9,3.7,6.9,15.9,5,30.8L8.8,27l2.8,3.3C13.7,18.9,23.1,9.8,35.1,8.6C49.7,7.2,62.6,17.9,64,32.5
	C65.4,47,54.8,60,40.2,61.4C26.3,62.7,13.9,53,11.6,39.4l4.3,0l-7.5-8.7l-7.5,8.8l4.2,0c2.4,17.4,18.1,30,35.8,28.3
	c18.1-1.7,31.4-17.9,29.7-36C68.7,13.7,52.6,0.4,34.5,2.2"/>
<polygon class="st1" points="33.1,52.8 33.1,42.8 30.3,42.8 30.3,46.7 27.3,46.7 27.3,42.8 24.5,42.8 24.5,52.8 27.3,52.8 
	27.3,48.8 30.3,48.8 30.3,52.8 "/>
<path class="st1" d="M40.7,46c0,0.5-0.4,1-1.2,1h-1.6v-2h1.6C40.3,45,40.7,45.5,40.7,46 M43.5,46c0-1.6-1.4-3.2-3.9-3.2h-4.5v10h2.8
	v-3.7h0.9l2.1,3.8h2.9l-2.2-4.2C42.6,48.2,43.5,47.4,43.5,46"/>
<path class="st1" d="M53,49.7c0-0.9-0.2-1.7-0.8-2.2c-0.5-0.4-1.2-0.7-2.2-0.8l-1.4-0.2c-0.4,0-0.6-0.2-0.8-0.3
	c-0.2-0.2-0.2-0.3-0.2-0.5c0-0.4,0.4-0.9,1.4-0.9c0.5,0,1.4,0,2.2,0.6l1.8-1.5c-1-0.9-2.2-1.2-3.8-1.2c-2.6,0-4.2,1.3-4.2,3.2
	c0,0.9,0.3,1.5,0.8,2c0.5,0.5,1.3,0.8,2.3,0.9l1.4,0.2c0.4,0,0.6,0.1,0.8,0.3c0.2,0.2,0.2,0.3,0.2,0.6c0,0.6-0.5,0.9-1.6,0.9
	c-0.9,0-2-0.2-2.5-0.7l-1.8,1.6c1.2,1,2.6,1.3,4.3,1.3C50.9,52.9,53,51.8,53,49.7"/>
<path class="st1" d="M52.7,39.7v-4.4H45l5-5.3c1.7-1.8,2.6-3,2.6-5.2c0-4-2.8-6.4-6.8-6.4c-3.7,0-6.8,2.3-6.8,6.4h4.9
	c0-1.6,1.1-2,2-2c1.2,0,1.9,0.8,1.9,2c0,0.9-0.3,1.4-1.1,2.3l-7.7,8.3v4.4H52.7z"/>
<polyline class="st1" points="27.3,23 31.9,23 25.3,39.7 30.6,39.7 37.2,23 37.2,18.6 22.7,18.6 22.7,23 "/>
</svg>
