<?xml version="1.0" encoding="utf-8"?>
<!-- Generator: Adobe Illustrator 22.0.1, SVG Export Plug-In . SVG Version: 6.00 Build 0)  -->
<svg version="1.1" id="Layer_1" xmlns="http://www.w3.org/2000/svg" xmlns:xlink="http://www.w3.org/1999/xlink" x="0px" y="0px"
	 viewBox="0 0 72.3 69.5" style="enable-background:new 0 0 72.3 69.5;" xml:space="preserve">
<style type="text/css">
	.st0{fill:#D1232A;}
</style>
<path class="st0" d="M34.5,2.2C18.9,3.7,6.9,15.9,5,30.8L8.8,27l2.8,3.3C13.7,18.9,23.1,9.8,35.1,8.6C49.7,7.2,62.6,17.9,64,32.5
	C65.4,47,54.8,60,40.2,61.4c-13.9,1.3-26.3-8.4-28.6-22h4.3l-7.5-8.7l-7.5,8.8h4.2c2.4,17.4,18.1,30,35.8,28.3
	c18.1-1.7,31.4-17.9,29.7-36C68.7,13.7,52.6,0.4,34.5,2.2"/>
<polygon class="st0" points="33.1,52.8 33.1,42.8 30.3,42.8 30.3,46.7 27.3,46.7 27.3,42.8 24.5,42.8 24.5,52.8 27.3,52.8 
	27.3,48.8 30.3,48.8 30.3,52.8 "/>
<path class="st0" d="M40.7,46c0,0.5-0.4,1-1.2,1h-1.6v-2h1.6C40.3,45,40.7,45.5,40.7,46 M43.5,46c0-1.6-1.4-3.2-3.9-3.2h-4.5v10h2.8
	v-3.7h0.9l2.1,3.8h2.9l-2.2-4.2C42.6,48.2,43.5,47.4,43.5,46"/>
<path class="st0" d="M53,49.7c0-0.9-0.2-1.7-0.8-2.2c-0.5-0.4-1.2-0.7-2.2-0.8l-1.4-0.2c-0.4,0-0.6-0.2-0.8-0.3
	c-0.2-0.2-0.2-0.3-0.2-0.5c0-0.4,0.4-0.9,1.4-0.9c0.5,0,1.4,0,2.2,0.6l1.8-1.5c-1-0.9-2.2-1.2-3.8-1.2c-2.6,0-4.2,1.3-4.2,3.2
	c0,0.9,0.3,1.5,0.8,2s1.3,0.8,2.3,0.9l1.4,0.2c0.4,0,0.6,0.1,0.8,0.3s0.2,0.3,0.2,0.6c0,0.6-0.5,0.9-1.6,0.9c-0.9,0-2-0.2-2.5-0.7
	l-1.8,1.6c1.2,1,2.6,1.3,4.3,1.3C50.9,52.9,53,51.8,53,49.7"/>
<path class="st0" d="M52.7,39.7v-4.4H45l5-5.3c1.7-1.8,2.6-3,2.6-5.2c0-4-2.8-6.4-6.8-6.4c-3.7,0-6.8,2.3-6.8,6.4h4.9
	c0-1.6,1.1-2,2-2c1.2,0,1.9,0.8,1.9,2c0,0.9-0.3,1.4-1.1,2.3L39,35.4v4.4L52.7,39.7L52.7,39.7z"/>
<polyline class="st0" points="27.3,23 31.9,23 25.3,39.7 30.6,39.7 37.2,23 37.2,18.6 22.7,18.6 22.7,23 "/>
</svg>
